<?xml version="1.0" encoding="UTF-8"?>
<svg width="122px" height="90px" viewBox="0 0 122 90" version="1.1" xmlns="http://www.w3.org/2000/svg" xmlns:xlink="http://www.w3.org/1999/xlink">
    <!-- Generator: Sketch 41.2 (35397) - http://www.bohemiancoding.com/sketch -->
    <title>ico open</title>
    <desc>Created with Sketch.</desc>
    <defs>
        <rect id="path-1" x="0.271307207" y="0" width="106.54974" height="76.5826254" rx="4"></rect>
        <mask id="mask-2" maskContentUnits="userSpaceOnUse" maskUnits="objectBoundingBox" x="0" y="0" width="106.54974" height="76.5826254" fill="white">
            <use xlink:href="#path-1"></use>
        </mask>
        <path d="M75.5823388,36.0686598 C73.4244343,36.1378567 71.4004736,35.0145026 70.3012596,33.1375149 C69.2020456,31.2605273 69.2020456,28.9278217 70.3012596,27.0508341 C71.4004736,25.1738464 73.4244343,24.0504923 75.5823388,24.1196892 C75.8813949,24.1272243 76.1798158,24.1513391 76.4762543,24.1919248 C78.1078098,21.773631 81.0937141,20.6890894 83.8762939,21.5040789 C86.6588737,22.3190685 88.607256,24.8488128 88.7050174,27.7736061 L88.7050174,28.1949804 C89.896924,28.9942789 90.6199123,30.3376541 90.6358748,31.7826814 C90.5061455,34.1756768 88.526655,36.0368998 86.1543787,35.9964242 C85.8927445,36.0006064 76.1220891,36.0645426 75.5823388,36.0686598 Z" id="path-3"></path>
        <mask id="mask-4" maskContentUnits="userSpaceOnUse" maskUnits="objectBoundingBox" x="0" y="0" width="21.1590257" height="14.8357269" fill="white">
            <use xlink:href="#path-3"></use>
        </mask>
        <path d="M90.3336756,46.1793714 C86.9990708,46.2863012 83.8714489,44.5503847 82.1728361,41.64988 C80.4742232,38.7493753 80.4742232,35.1446508 82.1728361,32.2441461 C83.8714489,29.3436414 86.9990708,27.6077249 90.3336756,27.7146546 C90.7958062,27.7262986 91.2569554,27.7635632 91.715041,27.8262801 C94.23628,24.0892963 98.8503911,22.4133567 103.150305,23.6727582 C107.450219,24.9321597 110.46105,28.8413678 110.612121,33.3610441 L110.612121,34.0121928 C112.453971,35.2473469 113.571203,37.3232615 113.59587,39.5562589 C113.3954,43.2541491 110.336498,46.1302927 106.670624,46.0677459 C106.266322,46.0742086 91.1677504,46.173009 90.3336756,46.1793714 Z" id="path-5"></path>
        <mask id="mask-6" maskContentUnits="userSpaceOnUse" maskUnits="objectBoundingBox" x="0" y="0" width="32.6969936" height="22.9256145" fill="white">
            <use xlink:href="#path-5"></use>
        </mask>
        <rect id="path-7" x="0" y="0" width="51.5730337" height="37.4157303" rx="4"></rect>
        <mask id="mask-8" maskContentUnits="userSpaceOnUse" maskUnits="objectBoundingBox" x="0" y="0" width="51.5730337" height="37.4157303" fill="white">
            <use xlink:href="#path-7"></use>
        </mask>
    </defs>
    <g id="Welcome" stroke="none" stroke-width="1" fill="none" fill-rule="evenodd">
        <g id="Home" transform="translate(-660.000000, -364.000000)">
            <g id="ico-open" transform="translate(660.000000, 364.000000)">
                <g id="Group-5" transform="translate(8.089888, 0.000000)">
                    <use id="Rectangle-6" stroke="#535D92" mask="url(#mask-2)" stroke-width="2" fill="#F5F7F9" xlink:href="#path-1"></use>
                    <use id="Shape" stroke="#535D92" mask="url(#mask-4)" stroke-width="2" fill="#FFFFFF" xlink:href="#path-3"></use>
                    <use id="Shape" stroke="#535D92" mask="url(#mask-6)" stroke-width="2" fill="#FFFFFF" xlink:href="#path-5"></use>
                    <path d="M106.821047,7.86790902 L105.809811,8.87914497 L105.809811,7.86790902 L106.821047,7.86790902 Z M105.809811,7.86790902 L105.809811,4.04982223 C105.809811,2.37462028 104.448636,1.01123596 102.774279,1.01123596 L4.31807481,1.01123596 C2.63737275,1.01123596 1.28254316,2.36874171 1.28254316,4.04982223 L1.28254316,7.86790902 L105.809811,7.86790902 Z M0.271307207,4.04982223 C0.271307207,1.81316717 2.07597078,0 4.31807481,0 L102.774279,0 C105.009247,0 106.821047,1.81825356 106.821047,4.04982223 L106.821047,8.87914497 L0.271307207,8.87914497 L0.271307207,4.04982223 Z" id="Rectangle-6" fill="#535D92"></path>
                    <path d="M105.809811,7.86790902 L105.809811,4.04982223 C105.809811,2.37462028 104.448636,1.01123596 102.774279,1.01123596 L4.31807481,1.01123596 C2.63737275,1.01123596 1.28254316,2.36874171 1.28254316,4.04982223 L1.28254316,7.86790902 L105.809811,7.86790902 Z" id="Path" fill="#FFFFFF"></path>
                    <ellipse id="Oval-2" fill="#535D92" cx="6.93066594" cy="4.43957249" rx="1.10989312" ry="1.10989312"></ellipse>
                    <ellipse id="Oval-2" fill="#535D92" cx="12.4801315" cy="4.43957249" rx="1.10989312" ry="1.10989312"></ellipse>
                    <ellipse id="Oval-2" fill="#535D92" cx="16.919704" cy="4.43957249" rx="1.10989312" ry="1.10989312"></ellipse>
                </g>
                <g id="Group-5" transform="translate(0.000000, 23.258427)">
                    <use id="Rectangle-6" stroke="#535D92" mask="url(#mask-8)" stroke-width="2" fill="#FFFFFF" xlink:href="#path-7"></use>
                    <rect id="Rectangle-4" fill="#535D92" x="1.01123596" y="7.07865169" width="49.5505618" height="1.01123596"></rect>
                    <g id="Group-7" transform="translate(4.044944, 3.033708)" fill="#535D92">
                        <ellipse id="Oval-2" cx="1.01123596" cy="1.01123596" rx="1.01123596" ry="1.01123596"></ellipse>
                        <ellipse id="Oval-2" cx="5.05617978" cy="1.01123596" rx="1.01123596" ry="1.01123596"></ellipse>
                        <circle id="Oval-2" cx="9.1011236" cy="1.01123596" r="1.01123596"></circle>
                    </g>
                </g>
                <g id="Group-6" transform="translate(36.415730, 39.449438)">
                    <ellipse id="Oval" stroke="#F04E23" fill="#FFFFFF" cx="24.5842697" cy="25.0505618" rx="24" ry="24.5"></ellipse>
                    <g id="Group-3" transform="translate(11.112360, 11.112360)" fill="#F04E23">
                        <rect id="Rectangle-3" x="0" y="25.2808989" width="28.3146067" height="1.01123596" rx="0.505617978"></rect>
                        <rect id="Rectangle-3" transform="translate(14.157303, 10.617978) rotate(-270.000000) translate(-14.157303, -10.617978) " x="4.04494382" y="10.1123596" width="20.2247191" height="1.01123596" rx="0.505617978"></rect>
                        <rect id="Rectangle-3" transform="translate(11.610979, 17.880654) rotate(-315.000000) translate(-11.610979, -17.880654) " x="7.56603537" y="17.3750365" width="8.08988764" height="1.01123596" rx="0.505617978"></rect>
                        <rect id="Rectangle-3" transform="translate(16.667159, 17.880654) scale(-1, 1) rotate(-315.000000) translate(-16.667159, -17.880654) " x="12.6222151" y="17.3750365" width="8.08988764" height="1.01123596" rx="0.505617978"></rect>
                    </g>
                </g>
            </g>
        </g>
    </g>
</svg>