<?xml version="1.0" encoding="utf-8"?>
<!-- Generator: Adobe Illustrator 20.0.0, SVG Export Plug-In . SVG Version: 6.00 Build 0)  -->
<svg version="1.1" id="Layer_1" xmlns="http://www.w3.org/2000/svg" xmlns:xlink="http://www.w3.org/1999/xlink" x="0px" y="0px"
	 viewBox="0 0 20 20" style="enable-background:new 0 0 20 20;" xml:space="preserve">
<style type="text/css">
	.st0{fill:#CBCFD4;}
</style>
<g>
	<path class="st0" d="M13.3,14.8c-0.2,0-0.4,0.2-0.4,0.4v3.3c0,0.4-0.3,0.8-0.8,0.8H1.6c-0.4,0-0.8-0.3-0.8-0.8V1.6
		c0-0.4,0.3-0.8,0.8-0.8h10.6c0.4,0,0.8,0.3,0.8,0.8v3c0,0.2,0.2,0.4,0.4,0.4c0.2,0,0.4-0.2,0.4-0.4v-3C13.7,0.7,13,0,12.1,0H1.6
		C0.7,0,0,0.7,0,1.6v16.9C0,19.3,0.7,20,1.6,20h10.6c0.9,0,1.6-0.7,1.6-1.6v-3.3C13.7,14.9,13.5,14.8,13.3,14.8z"/>
	<path class="st0" d="M19.6,9.6H7l2.7-2.7c0.2-0.2,0.2-0.4,0-0.6c-0.2-0.2-0.4-0.2-0.6,0L5.8,9.7C5.7,9.8,5.6,9.9,5.6,10
		c0,0.1,0,0.2,0.1,0.3l3.4,3.4c0.1,0.1,0.2,0.1,0.3,0.1c0.1,0,0.2,0,0.3-0.1c0.2-0.2,0.2-0.4,0-0.6L7,10.4h12.6
		c0.2,0,0.4-0.2,0.4-0.4C20,9.8,19.8,9.6,19.6,9.6z"/>
</g>
</svg>
