<?xml version="1.0" encoding="UTF-8"?>
<svg width="122px" height="90px" viewBox="0 0 122 90" version="1.1" xmlns="http://www.w3.org/2000/svg" xmlns:xlink="http://www.w3.org/1999/xlink">
    <!-- Generator: Sketch 41.2 (35397) - http://www.bohemiancoding.com/sketch -->
    <title>illu_open</title>
    <desc>Created with Sketch.</desc>
    <defs>
        <rect id="path-1" x="0.271307208" y="0" width="106.54974" height="76.5826254" rx="4"></rect>
        <path d="M6.81829392,14.8327047 C4.6603894,14.9019017 2.63642865,13.7785476 1.53721466,11.9015599 C0.438000674,10.0245722 0.438000674,7.69186669 1.53721466,5.81487907 C2.63642865,3.93789135 4.6603894,2.81453724 6.81829392,2.88373409 C7.11734997,2.89126921 7.41577085,2.91538406 7.71220931,2.95596971 C9.34376481,0.537675876 12.3296692,-0.546865685 15.112249,0.268123854 C17.8948287,1.08311339 19.843211,3.61285776 19.9409725,6.53765107 L19.9409725,6.9590254 C21.1328791,7.7583239 21.8558674,9.10169899 21.8718298,10.5467263 C21.7421005,12.9397217 19.7626101,14.8009447 17.3903338,14.7604692 C17.1286995,14.7646514 7.35804415,14.8285875 6.81829392,14.8327047 Z" id="path-3"></path>
        <path d="M9.4347992,22.9209445 C6.10019434,23.0278743 2.97257258,21.2919577 1.27395971,18.391453 C-0.42465327,15.4909483 -0.42465327,11.8862239 1.27395971,8.98571912 C2.97257258,6.08521449 6.10019434,4.34929793 9.4347992,4.45622764 C9.89692979,4.46787162 10.358079,4.50513617 10.8161646,4.56785322 C13.3374037,0.830869382 17.9515147,-0.84507027 22.2514291,0.41433118 C26.5513429,1.67373273 29.5621736,5.58294078 29.7132442,10.1026171 L29.7132442,10.7537659 C31.5550942,11.9889199 32.6723269,14.0648345 32.6969939,16.2978319 C32.4965235,19.9957221 29.4376207,22.8718657 25.7717478,22.809319 C25.3674455,22.8157817 10.268874,22.9145821 9.4347992,22.9209445 Z" id="path-5"></path>
        <rect id="path-7" x="0" y="0" width="51.5730337" height="37.4157303" rx="4"></rect>
    </defs>
    <g id="Page-1" stroke="none" stroke-width="1" fill="none" fill-rule="evenodd">
        <g id="illu_open">
            <g id="Welcome">
                <g id="Home">
                    <g id="Group">
                        <g id="ico-open">
                            <g id="Group-5" transform="translate(8.089888, 0.000000)">
                                <g id="Rectangle-6-Clipped">
                                    <mask id="mask-2" fill="white">
                                        <use xlink:href="#path-1"></use>
                                    </mask>
                                    <g id="path-2"></g>
                                    <g id="Rectangle-6" mask="url(#mask-2)" stroke="#535D92" stroke-width="2" fill="#F5F7F9">
                                        <rect id="path-2" x="0.271307208" y="0" width="106.54974" height="76.5826254" rx="4"></rect>
                                    </g>
                                </g>
                                <g id="Shape-Clipped" transform="translate(68.764045, 21.235955)">
                                    <mask id="mask-4" fill="white">
                                        <use xlink:href="#path-3"></use>
                                    </mask>
                                    <g id="path-4"></g>
                                    <g id="Shape" mask="url(#mask-4)" stroke="#535D92" stroke-width="2" fill="#FFFFFF">
                                        <path d="M6.81829392,14.8327047 C4.6603894,14.9019017 2.63642865,13.7785476 1.53721466,11.9015599 C0.438000674,10.0245722 0.438000674,7.69186669 1.53721466,5.81487907 C2.63642865,3.93789135 4.6603894,2.81453724 6.81829392,2.88373409 C7.11734997,2.89126921 7.41577085,2.91538406 7.71220931,2.95596971 C9.34376481,0.537675876 12.3296692,-0.546865685 15.112249,0.268123854 C17.8948287,1.08311339 19.843211,3.61285776 19.9409725,6.53765107 L19.9409725,6.9590254 C21.1328791,7.7583239 21.8558674,9.10169899 21.8718298,10.5467263 C21.7421005,12.9397217 19.7626101,14.8009447 17.3903338,14.7604692 C17.1286995,14.7646514 7.35804415,14.8285875 6.81829392,14.8327047 Z" id="path-4"></path>
                                    </g>
                                </g>
                                <g id="Shape-Clipped" transform="translate(80.898876, 23.258427)">
                                    <mask id="mask-6" fill="white">
                                        <use xlink:href="#path-5"></use>
                                    </mask>
                                    <g id="path-6"></g>
                                    <g id="Shape" mask="url(#mask-6)" stroke="#535D92" stroke-width="2" fill="#FFFFFF">
                                        <path d="M9.4347992,22.9209445 C6.10019434,23.0278743 2.97257258,21.2919577 1.27395971,18.391453 C-0.42465327,15.4909483 -0.42465327,11.8862239 1.27395971,8.98571912 C2.97257258,6.08521449 6.10019434,4.34929793 9.4347992,4.45622764 C9.89692979,4.46787162 10.358079,4.50513617 10.8161646,4.56785322 C13.3374037,0.830869382 17.9515147,-0.84507027 22.2514291,0.41433118 C26.5513429,1.67373273 29.5621736,5.58294078 29.7132442,10.1026171 L29.7132442,10.7537659 C31.5550942,11.9889199 32.6723269,14.0648345 32.6969939,16.2978319 C32.4965235,19.9957221 29.4376207,22.8718657 25.7717478,22.809319 C25.3674455,22.8157817 10.268874,22.9145821 9.4347992,22.9209445 Z" id="path-6"></path>
                                    </g>
                                </g>
                                <path d="M106.821047,7.86790901 L105.809811,8.87914497 L105.809811,7.86790901 L106.821047,7.86790901 Z M105.809811,7.86790901 L105.809811,4.04982223 C105.809811,2.37462028 104.448635,1.01123596 102.774279,1.01123596 L4.31807481,1.01123596 C2.63737274,1.01123596 1.28254316,2.36874171 1.28254316,4.04982223 L1.28254316,7.86790901 L105.809811,7.86790901 Z M0.271307208,4.04982223 C0.271307208,1.81316717 2.07597078,0 4.31807481,0 L102.774279,0 C105.009247,0 106.821047,1.81825356 106.821047,4.04982223 L106.821047,8.87914497 L0.271307208,8.87914497 L0.271307208,4.04982223 Z" id="Rectangle-6" fill="#535D92"></path>
                                <path d="M105.809811,7.86790901 L105.809811,4.04982223 C105.809811,2.37462028 104.448635,1.01123596 102.774279,1.01123596 L4.31807481,1.01123596 C2.63737274,1.01123596 1.28254316,2.36874171 1.28254316,4.04982223 L1.28254316,7.86790901 L105.809811,7.86790901 Z" id="Path" fill="#FFFFFF"></path>
                                <circle id="Oval-2" fill="#535D92" cx="6.93066594" cy="4.43957248" r="1.10989313"></circle>
                                <circle id="Oval-2" fill="#535D92" cx="12.4801315" cy="4.43957248" r="1.10989313"></circle>
                                <ellipse id="Oval-2" fill="#535D92" cx="16.919704" cy="4.43957248" rx="1.10989313" ry="1.10989313"></ellipse>
                            </g>
                            <g id="Group-5" transform="translate(0.000000, 23.258427)">
                                <g id="Rectangle-6-Clipped">
                                    <mask id="mask-8" fill="white">
                                        <use xlink:href="#path-7"></use>
                                    </mask>
                                    <g id="path-8"></g>
                                    <g id="Rectangle-6" mask="url(#mask-8)" stroke="#535D92" stroke-width="2" fill="#FFFFFF">
                                        <rect id="path-8" x="0" y="0" width="51.5730337" height="37.4157303" rx="4"></rect>
                                    </g>
                                </g>
                                <rect id="Rectangle-4" fill="#535D92" x="1.01123596" y="7.07865169" width="49.5505618" height="1.01123596"></rect>
                                <g id="Group-7" transform="translate(4.044944, 3.033708)" fill="#535D92">
                                    <ellipse id="Oval-2" cx="1.01123596" cy="1.01123596" rx="1.01123596" ry="1.01123596"></ellipse>
                                    <ellipse id="Oval-2" cx="5.05617978" cy="1.01123596" rx="1.01123596" ry="1.01123596"></ellipse>
                                    <circle id="Oval-2" cx="9.1011236" cy="1.01123596" r="1.01123596"></circle>
                                </g>
                            </g>
                            <g id="Group-6" transform="translate(37.415730, 40.449438)">
                                <ellipse id="Oval" stroke="#F04E23" fill="#FFFFFF" cx="23.8627021" cy="24.4176487" rx="23.8627021" ry="24.4176487"></ellipse>
                                <g id="Group-3" transform="translate(10.112360, 10.112360)" fill="#F04E23">
                                    <rect id="Rectangle-3" x="0" y="25.2808989" width="28.3146067" height="1.01123596" rx="0.5"></rect>
                                    <rect id="Rectangle-3" transform="translate(14.157303, 10.617978) rotate(90.000000) translate(-14.157303, -10.617978) " x="4.04494382" y="10.1123596" width="20.2247191" height="1.01123596" rx="0.5"></rect>
                                    <rect id="Rectangle-3" transform="translate(11.610979, 17.880655) rotate(45.000000) translate(-11.610979, -17.880655) " x="7.56603564" y="17.3750368" width="8.08988764" height="1.01123596" rx="0.5"></rect>
                                    <rect id="Rectangle-3" transform="translate(16.667158, 17.880655) rotate(135.000000) translate(-16.667158, -17.880655) " x="12.6222143" y="17.3750368" width="8.08988764" height="1.01123596" rx="0.5"></rect>
                                </g>
                            </g>
                        </g>
                    </g>
                </g>
            </g>
        </g>
    </g>
</svg>