<?xml version="1.0" encoding="UTF-8"?>
<svg width="27px" height="25px" viewBox="0 0 27 25" version="1.1" xmlns="http://www.w3.org/2000/svg" xmlns:xlink="http://www.w3.org/1999/xlink">
    <!-- Generator: Sketch 41 (35326) - http://www.bohemiancoding.com/sketch -->
    <title>teamstormer-logo</title>
    <desc>Created with Sketch.</desc>
    <defs></defs>
    <g id="Symbols" stroke="none" stroke-width="1" fill="none" fill-rule="evenodd">
        <g id="Topbar" transform="translate(-30.000000, -18.000000)">
            <g id="logo">
                <g transform="translate(30.000000, 18.000000)">
                    <g id="teamstormer-logo">
                        <path d="M20.9888095,18.576173 C20.6595406,18.5814363 20.3417119,18.4542374 20.105364,18.2226073 C19.869016,17.9909772 19.7335467,17.6739266 19.7288095,17.3413245 C19.7528088,16.6536939 20.3076745,16.1065679 20.9888095,16.0989003 C21.7786339,16.1114513 22.5409952,15.806307 23.1079314,15.2506961 C23.6748677,14.6950852 23.999861,13.9345964 24.0113095,13.1367791 C24.0070235,11.9659507 23.3186714,10.908136 22.2563095,10.4398094 C21.7393841,10.221807 21.4405483,9.6715516 21.5363095,9.11405182 C21.5865412,8.7905195 21.6166004,8.46411903 21.6263095,8.13677909 C21.568801,4.94244731 18.9689969,2.39421692 15.8063095,2.43223364 C13.6055623,2.41335791 11.5814271,3.64655076 10.5713095,5.62162758 C10.2758487,6.15389906 9.66626617,6.42309188 9.07880952,6.28071849 C8.62369412,6.15947516 8.15445437,6.10086479 7.68380952,6.10647606 C5.86487085,6.0513022 4.16023078,6.99998879 3.23462687,8.58258818 C2.30902296,10.1651876 2.30902296,12.1310979 3.23462687,13.7136973 C4.16023078,15.2962967 5.86487085,16.2449833 7.68380952,16.1898094 C8.01424582,16.1849563 8.33297215,16.3133238 8.56944884,16.5465019 C8.80592553,16.77968 8.94065148,17.0984396 8.94380952,17.4322336 C8.91816468,18.1179056 8.36308965,18.6619005 7.68380952,18.6670821 C4.96806879,18.754167 2.42089744,17.3404165 1.03752747,14.9782119 C-0.345842491,12.6160074 -0.345842491,9.68027807 1.03752747,7.31807353 C2.42089744,4.95586899 4.96806879,3.5421185 7.68380952,3.62920334 C8.06017405,3.63868629 8.43573927,3.669035 8.80880952,3.72011243 C10.8621357,0.67666959 14.6199211,-0.688234964 18.1218208,0.337436142 C21.6237206,1.36310725 24.0757759,4.54681152 24.1988095,8.22768818 L24.1988095,8.75799122 C25.6988338,9.76391499 26.6087206,11.4545638 26.6288095,13.2731427 C26.4655441,16.2847472 23.9743389,18.6271118 20.9888095,18.576173 L20.9888095,18.576173 Z" id="Shape" fill="#F04E23"></path>
                        <path d="M12.3713095,24.2428397 C12.1339053,24.2471757 11.9000538,24.1841854 11.6963095,24.0610215 C11.4162225,23.8877717 11.2160273,23.6089269 11.1400194,23.2861847 C11.0640115,22.9634425 11.1184571,22.6234104 11.2913095,22.3413245 L13.5938095,18.8034458 L12.3713095,18.8034458 C11.9066331,18.7954583 11.4799269,18.5425954 11.2463095,18.1367791 C11.0271555,17.7286709 11.0622655,17.2292105 11.3363095,16.8564761 L14.8538095,11.9019306 C15.2568369,11.3265197 16.0441908,11.187764 16.6163095,11.5913245 C16.8937983,11.7708591 17.0851821,12.0585625 17.1448809,12.3859152 C17.2045796,12.7132679 17.1272503,13.0509711 16.9313095,13.3185973 L14.8088095,16.326173 L15.8963095,16.326173 C16.3589817,16.3343312 16.7845555,16.5836572 17.0213095,16.9852639 C17.254947,17.3843333 17.2373764,17.8842384 16.9763095,18.265567 L13.4588095,23.7125367 C13.1829195,24.0315065 12.7901741,24.2230229 12.3713095,24.2428397 L12.3713095,24.2428397 Z" id="Shape_13_copy" fill="#232947"></path>
                    </g>
                </g>
            </g>
        </g>
    </g>
</svg>