<?xml version="1.0" encoding="utf-8"?>
<!-- Generator: Adobe Illustrator 20.0.0, SVG Export Plug-In . SVG Version: 6.00 Build 0)  -->
<svg version="1.1" id="Layer_1" xmlns="http://www.w3.org/2000/svg" xmlns:xlink="http://www.w3.org/1999/xlink" x="0px" y="0px"
	 viewBox="0 0 139.5 25" style="enable-background:new 0 0 139.5 25;" xml:space="preserve">
<style type="text/css">
	.st0{fill:#F04E23;}
	.st1{fill:#232947;}
</style>
<title>teamstormer-logo</title>
<desc>Created with Sketch.</desc>
<g id="Symbols">
	<g id="Topbar" transform="translate(-30.000000, -18.000000)">
		<g id="logo">
			<g transform="translate(30.000000, 18.000000)">
				<g id="teamstormer-logo">
					<path id="Shape" class="st0" d="M21.7,19.2c-0.3,0-0.6-0.1-0.9-0.4c-0.3-0.3-0.4-0.5-0.4-0.9c0-0.7,0.6-1.2,1.3-1.2
						c0.8,0,1.7-0.3,2.2-0.8s0.9-1.3,0.9-2.2c0-1.2-0.7-2.3-1.9-2.8c-0.5-0.2-0.8-0.8-0.7-1.3c0.1-0.3,0.1-0.6,0.1-1
						c-0.1-3.3-2.8-5.9-6-5.9c-2.3,0-4.3,1.2-5.4,3.3C10.6,6.4,10,6.7,9.4,6.6C8.9,6.4,8.5,6.3,7.9,6.3c-1.9,0-3.6,0.9-4.6,2.6
						s-0.9,3.6,0,5.3s2.7,2.6,4.5,2.6c0.3,0,0.6,0.1,0.9,0.4c0.2,0.2,0.4,0.6,0.4,0.9c0,0.7-0.6,1.2-1.3,1.2
						c-2.7,0.1-5.4-1.4-6.8-3.8S-0.4,10,1,7.5s4.1-3.9,6.9-3.8c0.4,0,0.8,0,1.1,0.1c2.2-3.1,6-4.5,9.6-3.5s6.2,4.3,6.3,8.2V9
						c1.5,1,2.5,2.8,2.5,4.6C27.4,16.8,24.8,19.2,21.7,19.2L21.7,19.2z"/>
					<path id="Shape_13_copy" class="st1" d="M12.8,25c-0.2,0-0.5-0.1-0.7-0.2c-0.3-0.2-0.5-0.5-0.6-0.8c-0.1-0.3,0-0.7,0.2-0.9
						l2.4-3.6h-1.2c-0.5,0-0.9-0.3-1.1-0.7c-0.2-0.4-0.2-0.9,0.1-1.3l3.6-5.2c0.4-0.6,1.2-0.7,1.9-0.3c0.3,0.2,0.5,0.5,0.5,0.8
						c0.1,0.3,0,0.7-0.2,0.9l-2.2,3.1h1.1c0.5,0,0.9,0.3,1.1,0.7c0.2,0.4,0.2,0.9,0,1.3L14,24.4C13.6,24.8,13.2,25,12.8,25L12.8,25z
						"/>
				</g>
			</g>
		</g>
	</g>
</g>
<g>
	<path class="st1" d="M47.2,7.5h-3.9v10.6h-1V7.5h-3.9V6.7h8.8V7.5z"/>
	<path class="st1" d="M51.3,18.3c-0.7,0-1.4-0.2-1.9-0.5c-0.6-0.4-1-0.8-1.4-1.5c-0.3-0.6-0.5-1.3-0.5-2.1v-0.3
		c0-0.8,0.2-1.5,0.5-2.2c0.3-0.7,0.8-1.2,1.3-1.5c0.6-0.4,1.2-0.6,1.8-0.6c1,0,1.8,0.4,2.4,1.1c0.6,0.7,0.9,1.7,0.9,2.9v0.5h-6v0.2
		c0,1,0.3,1.8,0.8,2.4c0.5,0.6,1.2,1,2.1,1c0.5,0,0.9-0.1,1.3-0.3c0.4-0.2,0.7-0.5,1-0.9l0.6,0.4C53.6,17.8,52.6,18.3,51.3,18.3z
		 M51.2,10.3c-0.7,0-1.3,0.3-1.8,0.8c-0.5,0.5-0.8,1.2-0.9,2.1h5.1V13c0-0.8-0.3-1.5-0.7-2C52.4,10.5,51.9,10.3,51.2,10.3z"/>
	<path class="st1" d="M61.7,18.1c-0.1-0.3-0.2-0.7-0.2-1.2c-0.3,0.4-0.7,0.8-1.3,1s-1,0.3-1.6,0.3c-0.8,0-1.5-0.2-2-0.7
		c-0.5-0.5-0.8-1-0.8-1.7c0-0.8,0.3-1.5,1-2c0.7-0.5,1.6-0.7,2.9-0.7h1.7v-1c0-0.6-0.2-1.1-0.6-1.4c-0.4-0.3-0.9-0.5-1.6-0.5
		c-0.7,0-1.2,0.2-1.6,0.5C57.2,11.1,57,11.5,57,12l-0.9,0c0-0.7,0.3-1.3,0.9-1.7s1.4-0.7,2.3-0.7c0.9,0,1.7,0.2,2.2,0.7
		c0.5,0.5,0.8,1.1,0.8,2v4c0,0.8,0.1,1.4,0.3,1.8v0.1H61.7z M58.7,17.4c0.6,0,1.2-0.2,1.7-0.5s0.9-0.7,1.1-1.2v-1.9h-1.7
		c-0.9,0-1.7,0.2-2.2,0.5c-0.5,0.3-0.8,0.8-0.8,1.4c0,0.5,0.2,0.9,0.5,1.2S58.2,17.4,58.7,17.4z"/>
	<path class="st1" d="M65.7,9.6l0,1.4c0.3-0.5,0.7-0.9,1.2-1.1c0.5-0.3,1-0.4,1.6-0.4c1.3,0,2.2,0.5,2.5,1.6
		c0.3-0.5,0.7-0.9,1.2-1.2c0.5-0.3,1.1-0.4,1.7-0.4c1.8,0,2.7,1,2.8,3v5.6h-0.9v-5.6c0-0.8-0.2-1.3-0.5-1.7
		c-0.3-0.4-0.8-0.5-1.6-0.5c-0.7,0-1.2,0.2-1.7,0.7c-0.5,0.4-0.7,0.9-0.8,1.6v5.6h-0.9v-5.6c0-0.7-0.2-1.3-0.5-1.6
		c-0.3-0.4-0.9-0.5-1.6-0.5c-0.6,0-1.1,0.2-1.5,0.5s-0.7,0.8-0.9,1.5v5.8h-0.9V9.6H65.7z"/>
	<path class="st1" d="M84.9,15.2c0-0.5-0.2-0.9-0.5-1.2c-0.4-0.3-1-0.5-1.9-0.8c-0.9-0.3-1.6-0.6-2.2-0.9c-1-0.7-1.6-1.5-1.6-2.5
		c0-0.9,0.4-1.7,1.1-2.3s1.7-0.9,2.9-0.9c0.8,0,1.5,0.1,2.1,0.4c0.6,0.3,1.1,0.7,1.5,1.2s0.5,1.1,0.5,1.8h-2c0-0.6-0.2-1-0.6-1.4
		c-0.4-0.3-0.9-0.5-1.6-0.5c-0.6,0-1.1,0.1-1.5,0.4c-0.4,0.3-0.5,0.7-0.5,1.2c0,0.4,0.2,0.8,0.6,1s1,0.5,1.9,0.8
		c0.9,0.3,1.6,0.6,2.1,0.9s0.9,0.7,1.2,1.2c0.2,0.4,0.4,0.9,0.4,1.5c0,0.9-0.4,1.7-1.1,2.3s-1.7,0.8-3,0.8c-0.8,0-1.6-0.2-2.3-0.5
		s-1.2-0.7-1.6-1.3c-0.4-0.5-0.6-1.2-0.6-1.9h2c0,0.6,0.2,1.1,0.6,1.5c0.4,0.4,1,0.5,1.8,0.5c0.7,0,1.2-0.1,1.6-0.4
		C84.8,16,84.9,15.6,84.9,15.2z"/>
	<path class="st1" d="M90.9,7.6v2.1h1.5v1.4h-1.5v4.7c0,0.3,0.1,0.6,0.2,0.7c0.1,0.1,0.4,0.2,0.7,0.2c0.2,0,0.4,0,0.7-0.1v1.5
		c-0.4,0.1-0.8,0.2-1.2,0.2c-1.5,0-2.2-0.8-2.2-2.4v-4.8h-1.4V9.6H89V7.6H90.9z"/>
	<path class="st1" d="M93.2,13.8c0-0.8,0.2-1.6,0.5-2.2s0.8-1.2,1.4-1.5c0.6-0.4,1.3-0.5,2-0.5c1.1,0,2.1,0.4,2.8,1.1
		s1.1,1.7,1.2,2.9l0,0.4c0,0.8-0.2,1.6-0.5,2.2s-0.8,1.2-1.4,1.5s-1.3,0.5-2.1,0.5c-1.2,0-2.1-0.4-2.9-1.2S93.2,15.2,93.2,13.8
		L93.2,13.8z M95.1,14c0,0.9,0.2,1.6,0.5,2s0.9,0.7,1.5,0.7s1.1-0.2,1.5-0.8s0.5-1.2,0.5-2.2c0-0.9-0.2-1.5-0.6-2S97.8,11,97.1,11
		c-0.6,0-1.1,0.2-1.5,0.7S95.1,13,95.1,14z"/>
	<path class="st1" d="M107.1,11.4c-0.2,0-0.5-0.1-0.8-0.1c-0.9,0-1.5,0.3-1.8,1v5.8h-1.9V9.6h1.8l0,0.9c0.5-0.7,1.1-1.1,1.9-1.1
		c0.3,0,0.5,0,0.7,0.1L107.1,11.4z"/>
	<path class="st1" d="M110.1,9.6l0.1,0.9c0.6-0.7,1.4-1,2.4-1c1.1,0,1.9,0.4,2.3,1.3c0.6-0.9,1.5-1.3,2.6-1.3c0.9,0,1.6,0.3,2.1,0.8
		s0.7,1.3,0.7,2.3v5.6h-1.9v-5.5c0-0.5-0.1-0.9-0.4-1.2s-0.6-0.4-1.2-0.4c-0.4,0-0.8,0.1-1.1,0.3c-0.3,0.2-0.5,0.5-0.6,0.9l0,5.8
		h-1.9v-5.6c0-1-0.5-1.5-1.5-1.5c-0.8,0-1.3,0.3-1.6,0.9v6.1h-1.9V9.6H110.1z"/>
	<path class="st1" d="M125.9,18.3c-1.2,0-2.2-0.4-2.9-1.1s-1.1-1.8-1.1-3v-0.2c0-0.8,0.2-1.6,0.5-2.3s0.8-1.2,1.4-1.6
		c0.6-0.4,1.2-0.6,2-0.6c1.2,0,2,0.4,2.7,1.1s0.9,1.8,0.9,3.1v0.8h-5.5c0.1,0.7,0.3,1.2,0.7,1.7s0.9,0.6,1.5,0.6
		c0.9,0,1.6-0.4,2.1-1.1l1,1c-0.3,0.5-0.8,0.9-1.4,1.2S126.6,18.3,125.9,18.3z M125.7,11c-0.5,0-0.9,0.2-1.3,0.5
		c-0.3,0.4-0.5,0.9-0.6,1.5h3.6v-0.1c0-0.6-0.2-1.1-0.5-1.4C126.7,11.2,126.2,11,125.7,11z"/>
	<path class="st1" d="M135.2,11.4c-0.2,0-0.5-0.1-0.8-0.1c-0.9,0-1.5,0.3-1.8,1v5.8h-1.9V9.6h1.8l0,0.9c0.5-0.7,1.1-1.1,1.9-1.1
		c0.3,0,0.5,0,0.7,0.1L135.2,11.4z"/>
</g>
</svg>
